<svg xmlns="http://www.w3.org/2000/svg" xmlns:xlink="http://www.w3.org/1999/xlink"
    viewBox="0 0 128 128" width="12" height="36"
    preserveAspectRatio="xMinYMin meet"
>
    <defs>
        <symbol id="dropdown">
            <path class="a" d="M63.8,87.3a4.587,4.587,0,0,1-3.3-1.5l-.2-.2c-2.1-1.9-4.2-3.9-6.3-5.8-1.1-1.1-2.2-2.1-3.3-3.1L22.2,50.1a5.026,5.026,0,0,1-1.5-4.4,5.236,5.236,0,0,1,5.1-4.8,6.817,6.817,0,0,1,4.6,2L60.1,70.4l.1.1,3.4,3.9L90.1,49.8c.8-.7,1.5-1.5,2.3-2.3l.2-.2c2.9-2.9,6.5-6.6,9.4-6.6a5.194,5.194,0,0,1,4.6,2.8,5.056,5.056,0,0,1,0,5.3,12.312,12.312,0,0,1-2.5,2.7l-.8.8L67.5,85.7A5.819,5.819,0,0,1,63.8,87.3Z"/>
        </symbol>
    </defs>
    <use xlink:href="#dropdown" x="0" y="0" fill="#474747" />
    <use xlink:href="#dropdown" x="0" y="128" fill="#d85e27" />
    <use xlink:href="#dropdown" x="0" y="256" fill="#e7e7e7" />
</svg>
