<?xml version="1.0" encoding="UTF-8" standalone="no"?>
<svg width="36px" height="36px" viewBox="0 0 36 36" version="1.1" xmlns="http://www.w3.org/2000/svg" xmlns:xlink="http://www.w3.org/1999/xlink">
    <!-- Generator: Sketch 3.8.3 (29802) - http://www.bohemiancoding.com/sketch -->
    <title>player_volume3</title>
    <desc>Created with Sketch.</desc>
    <defs>
        <polygon id="path-1" points="19.7916667 10.113348 19.7916667 20.226444 0 20.226444 0 10.113348 0 0.000252 19.7916667 0.000252 19.7916667 10.113348"></polygon>
    </defs>
    <g id="button-export" stroke="none" stroke-width="1" fill="none" fill-rule="evenodd">
        <g id="player_volume3">
            <g>
                <rect id="Rectangle-85-Copy-2" x="0" y="0" width="36" height="36"></rect>
                <g id="Page-1" transform="translate(8.000000, 8.000000)">
                    <mask id="mask-2" fill="white">
                        <use xlink:href="#path-1"></use>
                    </mask>
                    <g id="Clip-2"></g>
                    <path d="M8.33333333,3.630732 C8.33333333,3.399732 8.19333333,3.336732 8.0225,3.490452 L3.97666667,7.323372 C3.80583333,7.477092 3.47833333,7.603932 3.24916667,7.603932 L0.416666667,7.603932 C0.1875,7.603932 0,7.792092 0,8.023932 L0,11.365452 C0,11.596452 0.1875,11.785452 0.416666667,11.785452 L3.30333333,11.785452 C3.53166667,11.785452 3.85583333,11.914812 4.0225,12.074412 L8.03083333,15.906492 C8.1975,16.065252 8.33333333,16.005612 8.33333333,15.775452 L8.33333333,3.630732 Z M10.9883333,4.107012 L9.67,5.136012 C10.7841667,6.485052 11.4583333,8.217132 11.4583333,10.105452 C11.4583333,11.915652 10.8358333,13.580532 9.80166667,14.902692 L11.0941667,15.969492 C12.3633333,14.356692 13.125,12.319692 13.125,10.105452 C13.125,7.829892 12.3225,5.739972 10.9883333,4.107012 L10.9883333,4.107012 Z M13.625,2.053212 L12.3066667,3.080532 C13.8591667,4.998252 14.7916667,7.443492 14.7916667,10.105452 C14.7916667,12.722892 13.8883333,15.130332 12.3816667,17.033772 L13.67,18.098892 C15.4125,15.904812 16.4583333,13.126932 16.4583333,10.105452 C16.4583333,7.057092 15.395,4.254852 13.625,2.053212 L13.625,2.053212 Z M19.7916667,10.105452 C19.7916667,13.934172 18.4616667,17.453772 16.2475,20.226612 L14.9591667,19.162332 C16.9375,16.679292 18.125,13.530132 18.125,10.105452 C18.125,6.670692 16.9308333,3.513132 14.9425,1.026732 L16.26,0.000252 C18.4666667,2.770572 19.7916667,6.284292 19.7916667,10.105452 L19.7916667,10.105452 Z" id="Fill-1" fill="#FFFFFF" mask="url(#mask-2)"></path>
                </g>
            </g>
        </g>
    </g>
</svg>
