<?xml version="1.0" encoding="UTF-8" standalone="no"?>
<svg width="36px" height="36px" viewBox="0 0 36 36" version="1.1" xmlns="http://www.w3.org/2000/svg" xmlns:xlink="http://www.w3.org/1999/xlink">
    <!-- Generator: Sketch 3.8.3 (29802) - http://www.bohemiancoding.com/sketch -->
    <title>player_volume0</title>
    <desc>Created with Sketch.</desc>
    <defs>
        <polygon id="path-1" points="19.7916667 10.113348 19.7916667 20.226444 0 20.226444 0 10.113348 0 0.000252 19.7916667 0.000252 19.7916667 10.113348"></polygon>
        <polygon id="path-3" points="8.69652174 8.7670625 8.69652174 0.03434375 0.0176956522 0.03434375 0.0176956522 8.7670625 8.69652174 8.7670625"></polygon>
    </defs>
    <g id="button-export" stroke="none" stroke-width="1" fill="none" fill-rule="evenodd">
        <g id="player_volume0">
            <g>
                <rect id="Rectangle-85-Copy-2" x="0" y="0" width="36" height="36"></rect>
                <g id="Page-1" transform="translate(8.000000, 8.000000)">
                    <mask id="mask-2" fill="white">
                        <use xlink:href="#path-1"></use>
                    </mask>
                    <g id="Clip-2"></g>
                    <path d="M8.33333333,3.630732 C8.33333333,3.399732 8.19333333,3.336732 8.0225,3.490452 L3.97666667,7.323372 C3.80583333,7.477092 3.47833333,7.603932 3.24916667,7.603932 L0.416666667,7.603932 C0.1875,7.603932 0,7.792092 0,8.023932 L0,11.365452 C0,11.596452 0.1875,11.785452 0.416666667,11.785452 L3.30333333,11.785452 C3.53166667,11.785452 3.85583333,11.914812 4.0225,12.074412 L8.03083333,15.906492 C8.1975,16.065252 8.33333333,16.005612 8.33333333,15.775452 L8.33333333,3.630732 Z" id="Fill-1" fill="#FFFFFF" mask="url(#mask-2)"></path>
                </g>
                <g id="Group-6" transform="translate(18.434783, 13.488625)">
                    <mask id="mask-4" fill="white">
                        <use xlink:href="#path-3"></use>
                    </mask>
                    <g id="Clip-5"></g>
                    <path d="M5.91878261,4.40125 L8.56747826,1.735125 C8.73965217,1.563625 8.73965217,1.281 8.56747826,1.106875 L7.63269565,0.165375 C7.45965217,-0.007875 7.17878261,-0.007875 7.00747826,0.165375 L4.35791304,2.830625 L1.7066087,0.163625 C1.53704348,-0.00875 1.25530435,-0.00875 1.08313043,0.163625 L0.147478261,1.105125 C-0.0255652174,1.27925 -0.0255652174,1.561875 0.147478261,1.733375 L2.79791304,4.40125 L0.149217391,7.067375 C-0.023826087,7.23975 -0.023826087,7.522375 0.149217391,7.695625 L1.084,8.637125 C1.25530435,8.810375 1.53704348,8.810375 1.70834783,8.637125 L4.35791304,5.971875 L7.00573913,8.635375 C7.17704348,8.808625 7.45791304,8.808625 7.63095652,8.635375 L8.56573913,7.693875 C8.73791304,7.520625 8.73791304,7.238 8.56573913,7.065625 L5.91878261,4.40125 Z" id="Fill-4" fill="#FFFFFF" mask="url(#mask-4)"></path>
                </g>
            </g>
        </g>
    </g>
</svg>
