<?xml version="1.0" encoding="UTF-8" standalone="no"?>
<svg width="36px" height="36px" viewBox="0 0 36 36" version="1.1" xmlns="http://www.w3.org/2000/svg" xmlns:xlink="http://www.w3.org/1999/xlink">
    <!-- Generator: Sketch 3.8.3 (29802) - http://www.bohemiancoding.com/sketch -->
    <title>player_replay</title>
    <desc>Created with Sketch.</desc>
    <defs>
        <polygon id="path-1" points="0.116916667 20.8333333 18.8349749 20.8333333 18.8349749 0.665833333 0.116916667 0.665833333 0.116916667 20.8333333"></polygon>
    </defs>
    <g id="button-export" stroke="none" stroke-width="1" fill="none" fill-rule="evenodd">
        <g id="player_replay">
            <g>
                <rect id="Rectangle-85-Copy" x="0" y="0" width="36" height="36"></rect>
                <g id="Group-5" transform="translate(8.000000, 7.167833)">
                    <mask id="mask-2" fill="white">
                        <use xlink:href="#path-1"></use>
                    </mask>
                    <g id="Clip-4"></g>
                    <path d="M18.4085833,14.9208333 L17.71775,14.4533333 C17.3385833,14.1975 16.87025,14.2191667 16.67775,14.5041667 C16.4844167,14.7891667 15.90525,15.5833333 15.7344167,15.7808333 C14.0594167,17.7166667 11.95025,18.3416667 10.0319167,18.3225 C8.13858333,18.3041667 6.23441667,17.5575 4.80941667,16.1316667 C3.38358333,14.7058333 2.61608333,12.7441667 2.61608333,10.8241667 C2.61191667,9.2975 3.06191667,7.7575 4.02358333,6.42916667 C6.35775,3.2 10.79275,2.37 14.1419167,4.52333333 L12.9360833,6.19166667 C12.80275,6.37583333 12.8794167,6.525 13.1094167,6.52083333 L18.5244167,6.4275 C18.7535833,6.42333333 18.88525,6.24083333 18.8169167,6.02166667 L17.2119167,0.848333333 C17.1435833,0.630833333 16.97775,0.6025 16.8435833,0.789166667 L15.6110833,2.49333333 L15.5619167,2.46 C11.08525,-0.465 5.12691667,0.634166667 1.99691667,4.96416667 C0.716083333,6.73666667 0.116916667,8.84666667 0.116916667,10.8241667 C0.116916667,12.8016667 0.741916667,15.6141667 3.04191667,17.9133333 C4.97025,19.8408333 7.49691667,20.8141667 10.03025,20.8333333 C12.4710833,20.8516667 15.6594167,19.78 17.6085833,17.4308333 C17.8310833,17.1625 18.55525,16.1891667 18.74775,15.905 C18.9410833,15.62 18.78775,15.1775 18.4085833,14.9208333" id="Fill-3" fill="#FFFFFF" mask="url(#mask-2)"></path>
                </g>
            </g>
        </g>
    </g>
</svg>
